HIERARCHY
ROOT Hips
{
  OFFSET 26.2117 90.3581 -118.275
  CHANNELS 6 Xposition Yposition Zposition Zrotation Xrotation Yrotation
  JOINT RightUpLeg
  {
    OFFSET -8.9458 -8.66707 0.101652
    CHANNELS 3 Zrotation Xrotation Yrotation
    JOINT RightLeg
    {
      OFFSET 0 -44.4227 1.3727
      CHANNELS 3 Zrotation Xrotation Yrotation
      JOINT RightFoot
      {
        OFFSET 0.253549 -42.0924 -1.46059
        CHANNELS 3 Zrotation Xrotation Yrotation
        JOINT RightToes
        {
          OFFSET 0.04 -4.41509 8.4991
          CHANNELS 3 Zrotation Xrotation Yrotation
          End Site
          {
            OFFSET -0.08 -0.137448 9.77979
          }
        }
      }
    }
  }
  JOINT Spine
  {
    OFFSET 0 11.8905 0
    CHANNELS 3 Zrotation Xrotation Yrotation
    JOINT Spine1
    {
      OFFSET 0 25.6574 0.127663
      CHANNELS 3 Zrotation Xrotation Yrotation
      JOINT HEad
      {
        OFFSET 0 8.73416 0.011341
        CHANNELS 3 Zrotation Xrotation Yrotation
        End Site
        {
          OFFSET -0.29 12.7742 2.51395
        }
      }
      JOINT LeftShoulder1
      {
        OFFSET 8.99 -0.362252 -0.22
        CHANNELS 3 Zrotation Xrotation Yrotation
        JOINT LeftArm
        {
          OFFSET 10.2827 -0.00338 0.322123
          CHANNELS 3 Zrotation Xrotation Yrotation
          JOINT LeftForeArm
          {
            OFFSET 32.7669 0.099144 -1.42434
            CHANNELS 3 Zrotation Xrotation Yrotation
            JOINT LeftHand
            {
              OFFSET 27.5643 0.085362 1.02216
              CHANNELS 3 Zrotation Xrotation Yrotation
              End Site
              {
                OFFSET 16.7443 -0.6 1.50291
              }
            }
          }
        }
      }
      JOINT RightShoulder
      {
        OFFSET -8.99 -0.362252 -0.22
        CHANNELS 3 Zrotation Xrotation Yrotation
        JOINT RightArm
        {
          OFFSET -10.2827 -0.00338 0.322123
          CHANNELS 3 Zrotation Xrotation Yrotation
          JOINT RightForeArm
          {
            OFFSET -32.8971 0.099144 -1.42434
            CHANNELS 3 Zrotation Xrotation Yrotation
            JOINT RightHand
            {
              OFFSET -27.4921 0.085362 1.02216
              CHANNELS 3 Zrotation Xrotation Yrotation
              End Site
              {
                OFFSET -16.6312 -0.6 1.50291
              }
            }
          }
        }
      }
    }
  }
  JOINT LeftUpLeg
  {
    OFFSET 8.9458 -8.66707 0.101652
    CHANNELS 3 Zrotation Xrotation Yrotation
    JOINT LeftLeg
    {
      OFFSET 0 -44.4227 1.3727
      CHANNELS 3 Zrotation Xrotation Yrotation
      JOINT LeftFoot
      {
        OFFSET -0.253549 -42.0924 -1.46059
        CHANNELS 3 Zrotation Xrotation Yrotation
        JOINT LeftToes
        {
          OFFSET -0.04 -4.41509 8.4991
          CHANNELS 3 Zrotation Xrotation Yrotation
          End Site
          {
            OFFSET 0.08 -0.047448 9.77979
          }
        }
      }
    }
  }
}
MOTION
Frames:	9
Frame Time:	0.0166667
26.2117 90.3581 -118.275 -6.36546 -7.6246 -35.1297 -20.3834 -1.39138 13.4688 15.2457 33.326 2.01401 15.9582 -2.89912 -0.809762 -22.8947 -22.4121 20.1156 1.59858 13.7583 2.81037 3.87066 27.624 4.81787 -4.40013 -18.727 29.324 6.36111e-015 0 -3.18055e-015 -81.4425 -74.4272 -51.7329 -43.3238 38.9373 -63.6611 9.98645 7.18975 -28.5484 21.3796 5.94139 22.629 43.4556 -6.44777 59.3676 3.16427 37.8882 133.842 2.04016 8.54774 -56.9501 26.7629 -12.7718 -7.25349 -14.621 42.2018 17.7574 -19.6028 16.3725 4.01304 -13.7954 -34.5934 -15.6711 
26.375 91.3452 -118.788 -5.4742 -8.14571 -35.1231 -20.4843 -3.73337 13.4537 14.7182 35.9437 0.610878 17.5358 -0.0389621 -1.29772 -21.9861 -21.2645 21.8352 1.21514 13.8122 1.89533 2.6887 27.7514 3.2434 -4.31952 -19.6156 32.0347 1.59028e-015 6.36111e-015 -3.18055e-015 -92.1768 -75.4851 -65.4976 -45.7149 33.7057 -55.007 7.32152 7.78719 -31.5168 22.964 6.32099 22.6975 39.2046 -4.56858 55.5837 3.33627 36.001 134.043 3.22808 7.97251 -56.7907 26.6825 -12.8809 -6.90768 -14.6476 40.2685 14.2388 -21.832 19.8873 5.14666 -13.246 -32.7428 -16.8708 
26.6144 92.288 -119.315 -4.87215 -8.63125 -35.1978 -20.3941 -6.12899 12.9274 14.3433 38.5713 -1.36517 18.7465 4.47536 -2.09023 -22.5285 -21.9924 23.318 0.841946 13.8561 0.896714 1.6277 27.8797 1.45959 -3.9611 -20.2326 35.0071 1.76556e-031 3.18055e-015 -3.18055e-015 -82.295 -72.4576 -60.0114 -42.8517 22.1836 -51.9251 3.28335 9.02824 -33.6651 23.4652 6.74006 23.8436 37.1399 -4.30471 53.6327 3.99614 36.5078 132.74 3.87616 7.66697 -56.5601 26.7373 -13.0583 -5.58338 -13.5968 38.9728 9.34017 -23.7729 22.7096 6.20581 -12.4024 -30.4442 -17.9136 
26.8926 93.0943 -119.791 -4.75164 -8.89824 -35.3495 -19.8757 -8.33368 11.7806 13.9891 40.9973 -3.6984 19.7762 10.2018 -3.15274 -24.9337 -25.2799 24.7313 0.452826 13.8459 -0.0633272 0.932429 27.9021 -0.383445 -3.42209 -20.4218 37.9988 -4.77083e-015 3.18055e-015 -0 -60.6443 -63.4813 -44.0811 -37.3711 3.6994 -53.7169 -1.58162 10.6925 -34.329 22.9742 7.17146 25.9424 36.9719 -5.5343 53.2683 5.10776 38.8474 130.312 3.99742 7.6239 -56.245 26.9631 -13.1746 -3.65723 -11.3512 38.1598 4.04793 -24.8128 24.0282 6.77524 -11.5755 -28.3625 -18.722 
27.1871 93.6662 -120.145 -5.17022 -8.90139 -35.4575 -18.8358 -10.0643 10.0687 13.5851 43.2483 -5.84863 20.6935 15.4887 -4.22161 -28.2915 -29.9007 25.9066 0.143501 13.7708 -0.89012 0.742249 27.7789 -2.10034 -2.884 -20.0629 40.5944 -1.59028e-015 9.54166e-015 -3.18055e-015 -47.9036 -54.2333 -36.5183 -33.823 -12.7744 -54.1608 -5.37207 11.9813 -34.0535 21.833 7.49982 28.413 38.0097 -7.42396 54.0629 6.28767 41.7959 127.407 3.74876 7.77037 -55.6964 27.3429 -13.1852 -2.07769 -8.54413 37.4698 0.279862 -24.3469 23.8392 6.60154 -11.1066 -27.1864 -19.2259 
27.4926 93.9349 -120.306 -6.02387 -8.75349 -35.3231 -17.4624 -11.0291 8.09151 13.4422 45.2623 -7.19602 21.3554 18.6086 -4.92383 -31.1426 -33.7551 26.4644 0.0557544 13.6675 -1.53158 1.04519 27.5722 -3.52426 -2.53371 -19.1977 42.3571 -3.18055e-015 6.36111e-015 -0 -40.9161 -47.012 -33.0959 -31.3015 -23.3799 -53.4883 -6.95396 12.4577 -33.1853 20.4971 7.61741 30.4565 39.4639 -9.16979 55.6236 7.09375 44.288 124.821 3.293 8.02067 -54.9286 27.7252 -13.0681 -1.75726 -6.08086 36.6133 -0.289793 -22.2153 22.6456 5.76727 -10.9165 -26.9 -18.9817 
27.804 93.8764 -120.226 -7.07981 -8.65755 -34.7702 -16.1549 -10.9354 6.30477 14.0113 46.5988 -7.61385 21.6813 19.0984 -5.09093 -32.7651 -35.8136 26.3306 0.240446 13.6046 -1.9567 1.70798 27.4181 -4.53109 -2.43834 -18.1054 42.9802 3.18055e-015 9.54166e-015 -3.18055e-015 -38.4136 -42.6477 -31.9976 -29.2179 -26.7753 -52.5265 -6.40341 12.201 -32.1031 19.2328 7.45832 31.4156 40.8774 -10.4591 57.7905 7.3592 45.851 123.138 2.77619 8.28761 -54.2591 27.8189 -12.8164 -2.91388 -4.39076 35.5574 2.36346 -18.9775 20.9117 4.60893 -10.4929 -26.689 -17.3689 
28.1094 93.5194 -119.883 -8.08333 -8.76551 -33.772 -15.2286 -9.56798 5.13167 15.2861 46.5964 -7.50947 21.5926 17.8258 -4.83601 -33.6237 -36.659 25.4387 0.645687 13.6354 -2.11647 2.54457 27.4335 -4.98314 -2.51295 -17.197 42.3088 4.77083e-015 0 6.36111e-015 -39.8431 -41.1678 -32.6405 -27.7394 -23.3521 -52.2831 -4.54848 11.5498 -31.0565 18.0143 6.97672 30.9439 42.2838 -11.3577 60.5895 7.15386 46.4577 122.584 2.38788 8.46979 -54.1642 27.3748 -12.441 -4.94108 -3.26631 34.4792 6.56232 -15.6356 18.9593 3.50576 -9.47413 -25.7378 -14.2702 
28.3947 92.936 -119.275 -8.86466 -9.06957 -32.5274 -14.6847 -7.00002 4.87417 16.6871 44.9478 -7.26035 20.7336 15.668 -4.26133 -34.4607 -37.1568 23.5273 1.1622 13.7455 -1.93569 3.3548 27.6055 -4.70178 -2.60483 -16.7523 40.3616 -1.76556e-031 -3.18055e-015 -3.18055e-015 -44.7472 -42.2946 -34.787 -27.2597 -14.0077 -53.1005 -2.14993 10.7733 -30.1264 16.7687 6.20861 29.0634 43.9778 -12.0482 63.9527 6.61162 46.3479 123.09 2.28766 8.49146 -54.9327 26.4234 -11.9983 -6.93436 -2.42614 33.7209 10.4835 -12.9473 17.1208 2.67845 -8.22684 -24.3245 -10.4243 
